<mxfile host="app.diagrams.net" agent="Mozilla/5.0 (Windows NT 10.0; Win64; x64) AppleWebKit/537.36 (KHTML, like Gecko) Chrome/132.0.0.0 Safari/537.36 Edg/132.0.0.0" version="26.0.7">
  <diagram name="Page-1" id="V-oqWWwOyqvHbmN_96bf">
    <mxGraphModel dx="2787" dy="1996" grid="1" gridSize="10" guides="1" tooltips="1" connect="1" arrows="1" fold="1" page="0" pageScale="1" pageWidth="850" pageHeight="1100" math="0" shadow="0">
      <root>
        <mxCell id="0" />
        <mxCell id="1" parent="0" />
        <mxCell id="HsduzMEsnFrv9ZGrpt-6-28" value="" style="rounded=1;whiteSpace=wrap;html=1;" parent="1" vertex="1">
          <mxGeometry x="-1240" y="-1000" width="234.5" height="59" as="geometry" />
        </mxCell>
        <mxCell id="HsduzMEsnFrv9ZGrpt-6-29" value="" style="rounded=1;whiteSpace=wrap;html=1;" parent="1" vertex="1">
          <mxGeometry x="-948" y="-890" width="46" height="291" as="geometry" />
        </mxCell>
        <mxCell id="HsduzMEsnFrv9ZGrpt-6-33" value="pending_list" style="text;html=1;align=center;verticalAlign=middle;whiteSpace=wrap;rounded=0;fontSize=16;opacity=75;fillColor=default;fontStyle=1" parent="1" vertex="1">
          <mxGeometry x="-1149.5" y="-985.5" width="60" height="30" as="geometry" />
        </mxCell>
        <mxCell id="HsduzMEsnFrv9ZGrpt-6-35" value="wait_list" style="text;html=1;align=center;verticalAlign=middle;whiteSpace=wrap;rounded=0;fontSize=16;opacity=75;fillColor=default;fontStyle=1" parent="1" vertex="1">
          <mxGeometry x="-959" y="-766" width="60" height="30" as="geometry" />
        </mxCell>
        <mxCell id="HsduzMEsnFrv9ZGrpt-6-41" value="" style="curved=1;endArrow=classic;html=1;rounded=0;fontSize=12;startSize=8;endSize=8;entryX=0.5;entryY=1;entryDx=0;entryDy=0;exitX=0.5;exitY=1;exitDx=0;exitDy=0;" parent="1" edge="1" target="HsduzMEsnFrv9ZGrpt-6-29" source="BBeFIVTGwSGjwb9WCvwK-1">
          <mxGeometry width="50" height="50" relative="1" as="geometry">
            <mxPoint x="-1226" y="-443" as="sourcePoint" />
            <mxPoint x="-620" y="-593" as="targetPoint" />
            <Array as="points">
              <mxPoint x="-1080" y="-480" />
            </Array>
          </mxGeometry>
        </mxCell>
        <mxCell id="HsduzMEsnFrv9ZGrpt-6-42" value="OS_wait()" style="text;html=1;align=center;verticalAlign=middle;whiteSpace=wrap;rounded=0;fontSize=16;opacity=75;fillColor=default;fontStyle=2" parent="1" vertex="1">
          <mxGeometry x="-1082" y="-570" width="93" height="30" as="geometry" />
        </mxCell>
        <mxCell id="HsduzMEsnFrv9ZGrpt-6-44" value="" style="curved=1;endArrow=classic;html=1;rounded=0;fontSize=12;startSize=8;endSize=8;exitX=0.5;exitY=0;exitDx=0;exitDy=0;entryX=1;entryY=0.5;entryDx=0;entryDy=0;" parent="1" edge="1" target="HsduzMEsnFrv9ZGrpt-6-28" source="HsduzMEsnFrv9ZGrpt-6-29">
          <mxGeometry width="50" height="50" relative="1" as="geometry">
            <mxPoint x="-636" y="-904" as="sourcePoint" />
            <mxPoint x="-969" y="-994" as="targetPoint" />
            <Array as="points">
              <mxPoint x="-930" y="-950" />
            </Array>
          </mxGeometry>
        </mxCell>
        <mxCell id="HsduzMEsnFrv9ZGrpt-6-45" value="OS_notifyAll()" style="text;html=1;align=center;verticalAlign=middle;whiteSpace=wrap;rounded=0;fontSize=16;opacity=75;fillColor=default;fontStyle=2" parent="1" vertex="1">
          <mxGeometry x="-989" y="-949" width="105" height="30" as="geometry" />
        </mxCell>
        <mxCell id="HsduzMEsnFrv9ZGrpt-6-46" value="" style="endArrow=classic;html=1;rounded=0;fontSize=12;startSize=8;endSize=8;curved=1;exitX=0.5;exitY=1;exitDx=0;exitDy=0;entryX=0.25;entryY=0;entryDx=0;entryDy=0;" parent="1" edge="1" target="BBeFIVTGwSGjwb9WCvwK-1" source="HsduzMEsnFrv9ZGrpt-6-28">
          <mxGeometry width="50" height="50" relative="1" as="geometry">
            <mxPoint x="-1122" y="-935" as="sourcePoint" />
            <mxPoint x="-1173" y="-848" as="targetPoint" />
          </mxGeometry>
        </mxCell>
        <mxCell id="HsduzMEsnFrv9ZGrpt-6-47" value="" style="endArrow=classic;html=1;rounded=0;fontSize=12;startSize=8;endSize=8;curved=1;exitX=0.5;exitY=1;exitDx=0;exitDy=0;entryX=0.5;entryY=0;entryDx=0;entryDy=0;" parent="1" edge="1" target="BBeFIVTGwSGjwb9WCvwK-1" source="HsduzMEsnFrv9ZGrpt-6-28">
          <mxGeometry width="50" height="50" relative="1" as="geometry">
            <mxPoint x="-1121" y="-934" as="sourcePoint" />
            <mxPoint x="-1085" y="-847" as="targetPoint" />
          </mxGeometry>
        </mxCell>
        <mxCell id="HsduzMEsnFrv9ZGrpt-6-48" value="" style="endArrow=classic;html=1;rounded=0;fontSize=12;startSize=8;endSize=8;curved=1;exitX=0.5;exitY=1;exitDx=0;exitDy=0;entryX=0.75;entryY=0;entryDx=0;entryDy=0;" parent="1" edge="1" target="BBeFIVTGwSGjwb9WCvwK-1" source="HsduzMEsnFrv9ZGrpt-6-28">
          <mxGeometry width="50" height="50" relative="1" as="geometry">
            <mxPoint x="-1121" y="-934" as="sourcePoint" />
            <mxPoint x="-1039" y="-851" as="targetPoint" />
          </mxGeometry>
        </mxCell>
        <mxCell id="HsduzMEsnFrv9ZGrpt-6-49" value="sortPending()" style="text;html=1;align=center;verticalAlign=middle;whiteSpace=wrap;rounded=0;fontSize=16;opacity=75;fillColor=default;fontStyle=2" parent="1" vertex="1">
          <mxGeometry x="-1198" y="-919" width="133.5" height="30" as="geometry" />
        </mxCell>
        <mxCell id="HsduzMEsnFrv9ZGrpt-6-53" value="" style="triangle;whiteSpace=wrap;html=1;rotation=-90;" parent="1" vertex="1">
          <mxGeometry x="-920" y="-812" width="255" height="115" as="geometry" />
        </mxCell>
        <mxCell id="HsduzMEsnFrv9ZGrpt-6-54" value="sleep_heap" style="text;html=1;align=center;verticalAlign=middle;whiteSpace=wrap;rounded=0;fontSize=16;opacity=75;fillColor=default;fontStyle=1" parent="1" vertex="1">
          <mxGeometry x="-833" y="-767" width="87" height="30" as="geometry" />
        </mxCell>
        <mxCell id="HsduzMEsnFrv9ZGrpt-6-55" value="" style="curved=1;endArrow=classic;html=1;rounded=0;fontSize=12;startSize=8;endSize=8;entryX=0;entryY=0.5;entryDx=0;entryDy=0;exitX=0.5;exitY=1;exitDx=0;exitDy=0;" parent="1" edge="1" target="HsduzMEsnFrv9ZGrpt-6-53" source="BBeFIVTGwSGjwb9WCvwK-1">
          <mxGeometry width="50" height="50" relative="1" as="geometry">
            <mxPoint x="-1227" y="-435" as="sourcePoint" />
            <mxPoint x="-414" y="-617" as="targetPoint" />
            <Array as="points">
              <mxPoint x="-1100" y="-470" />
              <mxPoint x="-820" y="-480" />
            </Array>
          </mxGeometry>
        </mxCell>
        <mxCell id="HsduzMEsnFrv9ZGrpt-6-56" value="OS_sleep()" style="text;html=1;align=center;verticalAlign=middle;whiteSpace=wrap;rounded=0;fontSize=16;opacity=75;fillColor=default;fontStyle=2" parent="1" vertex="1">
          <mxGeometry x="-983" y="-490" width="93" height="30" as="geometry" />
        </mxCell>
        <mxCell id="HsduzMEsnFrv9ZGrpt-6-58" value="" style="curved=1;endArrow=classic;html=1;rounded=0;fontSize=12;startSize=8;endSize=8;entryX=0.5;entryY=0;entryDx=0;entryDy=0;exitX=1;exitY=0.5;exitDx=0;exitDy=0;" parent="1" edge="1" target="HsduzMEsnFrv9ZGrpt-6-28" source="HsduzMEsnFrv9ZGrpt-6-53">
          <mxGeometry width="50" height="50" relative="1" as="geometry">
            <mxPoint x="-419" y="-907" as="sourcePoint" />
            <mxPoint x="-1100" y="-1027" as="targetPoint" />
            <Array as="points">
              <mxPoint x="-860" y="-1060" />
              <mxPoint x="-1050" y="-1080" />
            </Array>
          </mxGeometry>
        </mxCell>
        <mxCell id="HsduzMEsnFrv9ZGrpt-6-57" value="OS_wake()" style="text;html=1;align=center;verticalAlign=middle;whiteSpace=wrap;rounded=0;fontSize=16;opacity=75;fillColor=default;fontStyle=2" parent="1" vertex="1">
          <mxGeometry x="-1030" y="-1090" width="93" height="30" as="geometry" />
        </mxCell>
        <mxCell id="BBeFIVTGwSGjwb9WCvwK-1" value="" style="rounded=1;whiteSpace=wrap;html=1;" vertex="1" parent="1">
          <mxGeometry x="-1237" y="-846.5" width="229" height="184" as="geometry" />
        </mxCell>
        <mxCell id="BBeFIVTGwSGjwb9WCvwK-2" value="Priority Array&lt;div&gt;and&lt;/div&gt;&lt;div&gt;Round Robins&lt;/div&gt;" style="text;html=1;align=center;verticalAlign=middle;whiteSpace=wrap;rounded=0;fontSize=16;fontStyle=1" vertex="1" parent="1">
          <mxGeometry x="-1190.75" y="-783.75" width="136" height="63.5" as="geometry" />
        </mxCell>
        <mxCell id="BBeFIVTGwSGjwb9WCvwK-4" style="edgeStyle=none;curved=1;rounded=0;orthogonalLoop=1;jettySize=auto;html=1;exitX=0.75;exitY=1;exitDx=0;exitDy=0;fontSize=12;startSize=8;endSize=8;" edge="1" parent="1" source="HsduzMEsnFrv9ZGrpt-6-56" target="HsduzMEsnFrv9ZGrpt-6-56">
          <mxGeometry relative="1" as="geometry" />
        </mxCell>
      </root>
    </mxGraphModel>
  </diagram>
</mxfile>
